STARTFONT 2.1
FONT -FontForge-Untitled3-Regular-R-Normal--100-960-75-75-P-595-ISO8859-1
SIZE 96 75 75
FONTBOUNDINGBOX 92 96 1 -21
COMMENT "Generated by fontforge, http://fontforge.sourceforge.net"
COMMENT "Copyright (c) 2020, Chris"
STARTPROPERTIES 31
FOUNDRY "FontForge"
FAMILY_NAME "Untitled3"
WEIGHT_NAME "Regular"
SLANT "R"
SETWIDTH_NAME "Normal"
ADD_STYLE_NAME ""
PIXEL_SIZE 100
POINT_SIZE 960
RESOLUTION_X 75
RESOLUTION_Y 75
SPACING "P"
AVERAGE_WIDTH 595
CHARSET_REGISTRY "ISO8859"
CHARSET_ENCODING "1"
FONTNAME_REGISTRY ""
CHARSET_COLLECTIONS "ISOLatin1Encoding"
FONT_NAME "Untitled3"
FACE_NAME "Untitled3"
COPYRIGHT "Copyright (c) 2020, Chris"
FONT_VERSION "001.000"
FONT_ASCENT 80
FONT_DESCENT 20
UNDERLINE_POSITION -10
UNDERLINE_THICKNESS 5
X_HEIGHT 53
CAP_HEIGHT 69
RAW_ASCENT 800
RAW_DESCENT 200
FIGURE_WIDTH -1
AVG_LOWERCASE_WIDTH 537
AVG_UPPERCASE_WIDTH 653
ENDPROPERTIES
CHARS 52
STARTCHAR A
ENCODING 65
SWIDTH 642 0
DWIDTH 64 0
BBX 60 71 2 0
BITMAP
0000000600000000
0000001F80000000
0000003FC0000000
0000007FE0000000
0000007FE0000000
0000007FF0000000
000000FFF0000000
000000FFF8000000
000001FFF8000000
000001FFF8000000
000001FFFC000000
000003FFFC000000
000003FFFE000000
000007FFFE000000
000007FFFE000000
00000FFFFF000000
00000FFFFF000000
00000FFFFF800000
00001FFBFF800000
00001FF9FFC00000
00003FF1FFC00000
00003FF0FFC00000
00003FE0FFE00000
00007FE0FFE00000
00007FE07FF00000
0000FFC07FF00000
0000FFC03FF00000
0001FF803FF80000
0001FF801FF80000
0001FF801FFC0000
0003FF001FFC0000
0003FF000FFC0000
0007FE000FFE0000
0007FE0007FE0000
0007FC0007FF0000
000FFC0003FF0000
000FFC0003FF8000
001FF80003FF8000
001FF80001FF8000
001FF00001FFC000
003FF00000FFC000
003FF00000FFE000
007FE00000FFE000
007FE000007FE000
00FFFFFFFFFFF000
00FFFFFFFFFFF000
00FFFFFFFFFFF800
01FFFFFFFFFFF800
01FFFFFFFFFFFC00
03FFFFFFFFFFFC00
03FFFFFFFFFFFC00
03FFFFFFFFFFFE00
07FFFFFFFFFFFE00
07FFFFFFFFFFFF00
0FFC00000003FF00
0FFC00000003FF00
1FF800000003FF80
1FF800000001FF80
1FF000000001FFC0
3FF000000000FFC0
3FF000000000FFE0
7FE0000000007FE0
7FE0000000007FE0
7FC0000000007FF0
FFC0000000003FF0
FFC0000000003FF0
FF80000000001FF0
FF80000000001FF0
FF00000000000FF0
FF00000000000FE0
7E000000000007C0
ENDCHAR
STARTCHAR B
ENCODING 66
SWIDTH 654 0
DWIDTH 65 0
BBX 53 72 8 -1
BITMAP
1FFFFFFFF00000
3FFFFFFFFF0000
7FFFFFFFFFC000
FFFFFFFFFFF000
FFFFFFFFFFF800
FFFFFFFFFFFC00
FFFFFFFFFFFC00
FFFFFFFFFFFE00
FFFFFFFFFFFF00
FFFFFFFFFFFF00
FFE000007FFF00
FFE000001FFF80
FFE000000FFF80
FFE0000007FF80
FFE0000003FF80
FFE0000003FF80
FFE0000003FF80
FFE0000001FF80
FFE0000001FF80
FFE0000001FF80
FFE0000001FF80
FFE0000001FF80
FFE0000003FF80
FFE0000003FF80
FFE0000003FF00
FFE0000007FF00
FFE000000FFE00
FFE000001FFE00
FFE000007FFC00
FFFFFFFFFFF800
FFFFFFFFFFF000
FFFFFFFFFFE000
FFFFFFFFFF8000
FFFFFFFFFFE000
FFFFFFFFFFF000
FFFFFFFFFFFC00
FFFFFFFFFFFE00
FFFFFFFFFFFF00
FFFFFFFFFFFF80
FFE000003FFFC0
FFE0000007FFC0
FFE0000001FFE0
FFE0000000FFF0
FFE00000007FF0
FFE00000007FF0
FFE00000003FF8
FFE00000003FF8
FFE00000003FF8
FFE00000003FF8
FFE00000003FF8
FFE00000003FF8
FFE00000003FF8
FFE00000003FF8
FFE00000003FF8
FFE00000003FF8
FFE00000003FF8
FFE00000007FF8
FFE00000007FF0
FFE0000000FFF0
FFE0000001FFF0
FFE0000003FFE0
FFE000000FFFE0
FFFFFFFFFFFFE0
FFFFFFFFFFFFC0
FFFFFFFFFFFF80
FFFFFFFFFFFF00
FFFFFFFFFFFE00
FFFFFFFFFFFC00
FFFFFFFFFFF800
7FFFFFFFFFE000
3FFFFFFFFF8000
1FFFFFFFF00000
ENDCHAR
STARTCHAR C
ENCODING 67
SWIDTH 636 0
DWIDTH 64 0
BBX 57 72 4 -1
BITMAP
00000003FFC00000
0000007FFFFC0000
000003FFFFFF8000
00000FFFFFFFE000
00003FFFFFFFF800
0000FFFFFFFFFE00
0001FFFFFFFFFF00
0007FFFFFFFFFF00
000FFFFFFFFFFF00
001FFFFFFFFFFF00
003FFFFC003FFF00
007FFFE00007FF00
00FFFF000001FE00
01FFFC0000007C00
01FFF80000000000
03FFF00000000000
07FFE00000000000
07FFC00000000000
0FFF800000000000
0FFF000000000000
1FFE000000000000
1FFE000000000000
1FFC000000000000
3FFC000000000000
3FF8000000000000
3FF8000000000000
7FF0000000000000
7FF0000000000000
7FF0000000000000
7FF0000000000000
7FE0000000000000
FFE0000000000000
FFE0000000000000
FFE0000000000000
FFE0000000000000
FFE0000000000000
FFE0000000000000
FFE0000000000000
FFE0000000000000
FFE0000000000000
FFE0000000000000
7FF0000000000000
7FF0000000000000
7FF0000000000000
7FF0000000000000
7FF0000000000000
3FF8000000000000
3FF8000000000000
3FFC000000000000
3FFC000000000000
1FFE000000000000
1FFE000000000000
0FFF000000000000
0FFF800000000000
07FF800000000000
07FFC00000000000
03FFE00000000000
01FFF80000000000
01FFFC0000007C00
00FFFF000001FE00
007FFFE00007FF00
003FFFFC007FFF00
001FFFFFFFFFFF00
000FFFFFFFFFFF80
0007FFFFFFFFFF00
0001FFFFFFFFFF00
0000FFFFFFFFFE00
00003FFFFFFFF800
00000FFFFFFFE000
000003FFFFFF8000
0000007FFFFC0000
00000003FFC00000
ENDCHAR
STARTCHAR D
ENCODING 68
SWIDTH 716 0
DWIDTH 72 0
BBX 59 72 8 -1
BITMAP
1FFFFFFFE0000000
3FFFFFFFFE000000
7FFFFFFFFFC00000
FFFFFFFFFFF00000
FFFFFFFFFFF80000
FFFFFFFFFFFE0000
FFFFFFFFFFFF0000
FFFFFFFFFFFF8000
FFFFFFFFFFFFC000
FFFFFFFFFFFFE000
FFE000001FFFF000
FFE0000007FFF800
FFE0000001FFF800
FFE0000000FFFC00
FFE00000007FFC00
FFE00000003FFE00
FFE00000001FFE00
FFE00000000FFF00
FFE00000000FFF00
FFE000000007FF80
FFE000000007FF80
FFE000000003FF80
FFE000000003FFC0
FFE000000001FFC0
FFE000000001FFC0
FFE000000001FFC0
FFE000000000FFE0
FFE000000000FFE0
FFE000000000FFE0
FFE000000000FFE0
FFE000000000FFE0
FFE000000000FFE0
FFE000000000FFE0
FFE0000000007FE0
FFE0000000007FE0
FFE0000000007FE0
FFE0000000007FE0
FFE0000000007FE0
FFE0000000007FE0
FFE000000000FFE0
FFE000000000FFE0
FFE000000000FFE0
FFE000000000FFE0
FFE000000000FFE0
FFE000000000FFE0
FFE000000000FFE0
FFE000000001FFC0
FFE000000001FFC0
FFE000000001FFC0
FFE000000003FFC0
FFE000000003FF80
FFE000000003FF80
FFE000000007FF80
FFE000000007FF00
FFE00000000FFF00
FFE00000001FFE00
FFE00000003FFE00
FFE00000007FFC00
FFE0000000FFFC00
FFE0000001FFF800
FFE0000007FFF800
FFE000001FFFF000
FFFFFFFFFFFFE000
FFFFFFFFFFFFC000
FFFFFFFFFFFF8000
FFFFFFFFFFFF0000
FFFFFFFFFFFE0000
FFFFFFFFFFFC0000
FFFFFFFFFFF00000
7FFFFFFFFFC00000
3FFFFFFFFF000000
1FFFFFFFF0000000
ENDCHAR
STARTCHAR E
ENCODING 69
SWIDTH 571 0
DWIDTH 57 0
BBX 45 72 8 -1
BITMAP
1FFFFFFFFFC0
3FFFFFFFFFE0
7FFFFFFFFFF0
FFFFFFFFFFF8
FFFFFFFFFFF8
FFFFFFFFFFF8
FFFFFFFFFFF8
FFFFFFFFFFF0
FFFFFFFFFFE0
FFFFFFFFFF00
FFE000000000
FFE000000000
FFE000000000
FFE000000000
FFE000000000
FFE000000000
FFE000000000
FFE000000000
FFE000000000
FFE000000000
FFE000000000
FFE000000000
FFE000000000
FFE000000000
FFE000000000
FFE000000000
FFE000000000
FFE000000000
FFE000000000
FFE000000000
FFFFFFFFF000
FFFFFFFFFE00
FFFFFFFFFF00
FFFFFFFFFF00
FFFFFFFFFF00
FFFFFFFFFF00
FFFFFFFFFF00
FFFFFFFFFF00
FFFFFFFFFE00
FFFFFFFFFC00
FFE000000000
FFE000000000
FFE000000000
FFE000000000
FFE000000000
FFE000000000
FFE000000000
FFE000000000
FFE000000000
FFE000000000
FFE000000000
FFE000000000
FFE000000000
FFE000000000
FFE000000000
FFE000000000
FFE000000000
FFE000000000
FFE000000000
FFE000000000
FFE000000000
FFE000000000
FFFFFFFFFF00
FFFFFFFFFFE0
FFFFFFFFFFF0
FFFFFFFFFFF0
FFFFFFFFFFF8
FFFFFFFFFFF8
FFFFFFFFFFF8
7FFFFFFFFFF0
3FFFFFFFFFF0
1FFFFFFFFFC0
ENDCHAR
STARTCHAR F
ENCODING 70
SWIDTH 563 0
DWIDTH 56 0
BBX 44 72 8 -1
BITMAP
1FFFFFFFFF80
3FFFFFFFFFE0
7FFFFFFFFFE0
FFFFFFFFFFF0
FFFFFFFFFFF0
FFFFFFFFFFF0
FFFFFFFFFFF0
FFFFFFFFFFE0
FFFFFFFFFFC0
FFFFFFFFFF00
FFE000000000
FFE000000000
FFE000000000
FFE000000000
FFE000000000
FFE000000000
FFE000000000
FFE000000000
FFE000000000
FFE000000000
FFE000000000
FFE000000000
FFE000000000
FFE000000000
FFE000000000
FFE000000000
FFE000000000
FFE000000000
FFE000000000
FFE000000000
FFFFFFFFE000
FFFFFFFFFC00
FFFFFFFFFE00
FFFFFFFFFE00
FFFFFFFFFF00
FFFFFFFFFF00
FFFFFFFFFE00
FFFFFFFFFE00
FFFFFFFFFC00
FFFFFFFFF800
FFE000000000
FFE000000000
FFE000000000
FFE000000000
FFE000000000
FFE000000000
FFE000000000
FFE000000000
FFE000000000
FFE000000000
FFE000000000
FFE000000000
FFE000000000
FFE000000000
FFE000000000
FFE000000000
FFE000000000
FFE000000000
FFE000000000
FFE000000000
FFE000000000
FFE000000000
FFE000000000
FFE000000000
FFE000000000
FFE000000000
FFE000000000
FFC000000000
FFC000000000
7FC000000000
3F8000000000
1F0000000000
ENDCHAR
STARTCHAR G
ENCODING 71
SWIDTH 696 0
DWIDTH 70 0
BBX 61 72 4 -1
BITMAP
00000003FFF00000
0000003FFFFF8000
000001FFFFFFE000
000007FFFFFFF800
00001FFFFFFFFE00
00007FFFFFFFFF00
0001FFFFFFFFFF80
0003FFFFFFFFFF80
0007FFFFFFFFFF80
000FFFFFFFFFFF80
001FFFFE003FFF00
003FFFF00003FF00
007FFF8000007E00
00FFFF0000000000
01FFFC0000000000
01FFF80000000000
03FFE00000000000
07FFC00000000000
07FFC00000000000
0FFF800000000000
0FFF000000000000
1FFE000000000000
1FFE000000000000
3FFC000000000000
3FFC000000000000
3FF8000000000000
7FF8000000000000
7FF0000000000000
7FF0000000000000
7FF0000000000000
7FF0000000000000
7FE0000000000000
FFE0000000000000
FFE0000000000000
FFE000000FFFFFC0
FFE000001FFFFFE0
FFE000003FFFFFF0
FFE000007FFFFFF0
FFE000007FFFFFF8
FFE000007FFFFFF8
7FE000007FFFFFF8
7FF000003FFFFFF8
7FF000001FFFFFF8
7FF000000FFFFFF8
7FF0000000003FF8
7FF8000000003FF8
3FF8000000003FF8
3FFC000000003FF8
3FFC000000003FF8
1FFE000000003FF8
1FFE000000003FF8
0FFF000000003FF8
0FFF800000003FF8
07FF800000003FF8
07FFC00000003FF8
03FFE00000003FF8
01FFF80000003FF8
01FFFC0000003FF8
00FFFF0000003FF8
007FFF8000007FF8
003FFFF00001FFF8
001FFFFE003FFFF8
000FFFFFFFFFFFF0
0007FFFFFFFFFFF0
0003FFFFFFFFFFE0
0000FFFFFFFFFFC0
00007FFFFFFFFF80
00001FFFFFFFFE00
000007FFFFFFF800
000001FFFFFFC000
0000003FFFFE0000
00000003FFE00000
ENDCHAR
STARTCHAR H
ENCODING 72
SWIDTH 719 0
DWIDTH 72 0
BBX 56 72 8 -1
BITMAP
1F0000000000F8
3F8000000001FC
7FC000000003FE
FFC000000003FF
FFE000000007FF
FFE000000007FF
FFE000000007FF
FFE000000007FF
FFE000000007FF
FFE000000007FF
FFE000000007FF
FFE000000007FF
FFE000000007FF
FFE000000007FF
FFE000000007FF
FFE000000007FF
FFE000000007FF
FFE000000007FF
FFE000000007FF
FFE000000007FF
FFE000000007FF
FFE000000007FF
FFE000000007FF
FFE000000007FF
FFE000000007FF
FFE000000007FF
FFE000000007FF
FFE000000007FF
FFE000000007FF
FFE000000007FF
FFE000000007FF
FFFFFFFFFFFFFF
FFFFFFFFFFFFFF
FFFFFFFFFFFFFF
FFFFFFFFFFFFFF
FFFFFFFFFFFFFF
FFFFFFFFFFFFFF
FFFFFFFFFFFFFF
FFFFFFFFFFFFFF
FFFFFFFFFFFFFF
FFFFFFFFFFFFFF
FFE000000007FF
FFE000000007FF
FFE000000007FF
FFE000000007FF
FFE000000007FF
FFE000000007FF
FFE000000007FF
FFE000000007FF
FFE000000007FF
FFE000000007FF
FFE000000007FF
FFE000000007FF
FFE000000007FF
FFE000000007FF
FFE000000007FF
FFE000000007FF
FFE000000007FF
FFE000000007FF
FFE000000007FF
FFE000000007FF
FFE000000007FF
FFE000000007FF
FFE000000007FF
FFE000000007FF
FFE000000007FF
FFE000000007FF
FFE000000007FF
FFC000000003FF
7FC000000003FE
3F8000000001FC
1F0000000000F8
ENDCHAR
STARTCHAR I
ENCODING 73
SWIDTH 267 0
DWIDTH 27 0
BBX 11 72 8 -1
BITMAP
1F00
3F80
7FC0
FFC0
FFE0
FFE0
FFE0
FFE0
FFE0
FFE0
FFE0
FFE0
FFE0
FFE0
FFE0
FFE0
FFE0
FFE0
FFE0
FFE0
FFE0
FFE0
FFE0
FFE0
FFE0
FFE0
FFE0
FFE0
FFE0
FFE0
FFE0
FFE0
FFE0
FFE0
FFE0
FFE0
FFE0
FFE0
FFE0
FFE0
FFE0
FFE0
FFE0
FFE0
FFE0
FFE0
FFE0
FFE0
FFE0
FFE0
FFE0
FFE0
FFE0
FFE0
FFE0
FFE0
FFE0
FFE0
FFE0
FFE0
FFE0
FFE0
FFE0
FFE0
FFE0
FFE0
FFE0
FFE0
FFC0
7FC0
3F80
1F00
ENDCHAR
STARTCHAR J
ENCODING 74
SWIDTH 559 0
DWIDTH 56 0
BBX 43 72 5 -1
BITMAP
000000001F00
000000003F80
000000007FC0
000000007FC0
00000000FFE0
00000000FFE0
00000000FFE0
00000000FFE0
00000000FFE0
00000000FFE0
00000000FFE0
00000000FFE0
00000000FFE0
00000000FFE0
00000000FFE0
00000000FFE0
00000000FFE0
00000000FFE0
00000000FFE0
00000000FFE0
00000000FFE0
00000000FFE0
00000000FFE0
00000000FFE0
00000000FFE0
00000000FFE0
00000000FFE0
00000000FFE0
00000000FFE0
00000000FFE0
00000000FFE0
00000000FFE0
00000000FFE0
00000000FFE0
00000000FFE0
00000000FFE0
00000000FFE0
00000000FFE0
00000000FFE0
00000000FFE0
00000000FFE0
00000000FFE0
00000000FFE0
00000000FFE0
00000000FFE0
00000000FFE0
00000000FFE0
00000000FFE0
00000000FFE0
00000000FFE0
00000000FFE0
00000000FFE0
00000000FFC0
00000000FFC0
1E000001FFC0
7F000001FFC0
7F800003FFC0
FFC00007FF80
FFE0000FFF80
FFF0001FFF00
FFFC003FFF00
7FFF01FFFE00
7FFFFFFFFE00
3FFFFFFFFC00
1FFFFFFFF800
0FFFFFFFF000
07FFFFFFE000
03FFFFFFC000
01FFFFFF0000
007FFFFC0000
001FFFF00000
0001FF800000
ENDCHAR
STARTCHAR K
ENCODING 75
SWIDTH 662 0
DWIDTH 66 0
BBX 55 71 8 0
BITMAP
0E0000000001E0
3F8000000003F8
7FC000000007F8
FFC00000000FFC
FFE00000001FFC
FFE00000003FFC
FFE00000007FFC
FFE0000000FFF8
FFE0000001FFF0
FFE0000003FFE0
FFE0000007FFC0
FFE000000FFF80
FFE000001FFF00
FFE000003FFE00
FFE000007FFC00
FFE00001FFF800
FFE00003FFF000
FFE00007FFE000
FFE0000FFFC000
FFE0001FFF8000
FFE0003FFF0000
FFE0007FFE0000
FFE000FFFC0000
FFE001FFF80000
FFE003FFF00000
FFE007FFE00000
FFE00FFFC00000
FFE01FFF000000
FFE03FFE000000
FFE07FFC000000
FFE0FFF8000000
FFE1FFFC000000
FFE3FFFE000000
FFE7FFFF000000
FFEFFFFF000000
FFFFFFFF800000
FFFFFFFFC00000
FFFFFFFFE00000
FFFFFBFFE00000
FFFFF3FFF00000
FFFFE1FFF80000
FFFFC0FFFC0000
FFFF807FFC0000
FFFF007FFE0000
FFFE003FFF0000
FFFC001FFF8000
FFF8000FFF8000
FFF00007FFC000
FFE00007FFE000
FFE00003FFF000
FFE00001FFF000
FFE00000FFF800
FFE00000FFFC00
FFE000007FFE00
FFE000003FFE00
FFE000001FFF00
FFE000001FFF80
FFE000000FFFC0
FFE0000007FFC0
FFE0000003FFE0
FFE0000003FFF0
FFE0000001FFF8
FFE0000000FFFC
FFE00000007FFC
FFE00000003FFC
FFE00000003FFE
FFE00000001FFE
FFC00000000FFC
7FC000000007FC
7F8000000007F8
1F0000000001E0
ENDCHAR
STARTCHAR L
ENCODING 76
SWIDTH 552 0
DWIDTH 55 0
BBX 44 72 8 -1
BITMAP
1F0000000000
3F8000000000
7FC000000000
FFC000000000
FFE000000000
FFE000000000
FFE000000000
FFE000000000
FFE000000000
FFE000000000
FFE000000000
FFE000000000
FFE000000000
FFE000000000
FFE000000000
FFE000000000
FFE000000000
FFE000000000
FFE000000000
FFE000000000
FFE000000000
FFE000000000
FFE000000000
FFE000000000
FFE000000000
FFE000000000
FFE000000000
FFE000000000
FFE000000000
FFE000000000
FFE000000000
FFE000000000
FFE000000000
FFE000000000
FFE000000000
FFE000000000
FFE000000000
FFE000000000
FFE000000000
FFE000000000
FFE000000000
FFE000000000
FFE000000000
FFE000000000
FFE000000000
FFE000000000
FFE000000000
FFE000000000
FFE000000000
FFE000000000
FFE000000000
FFE000000000
FFE000000000
FFE000000000
FFE000000000
FFE000000000
FFE000000000
FFE000000000
FFE000000000
FFE000000000
FFE000000000
FFE000000000
FFFFFFFFFF00
FFFFFFFFFFC0
FFFFFFFFFFE0
FFFFFFFFFFF0
FFFFFFFFFFF0
FFFFFFFFFFF0
FFFFFFFFFFF0
7FFFFFFFFFE0
7FFFFFFFFFC0
1FFFFFFFFF80
ENDCHAR
STARTCHAR M
ENCODING 77
SWIDTH 822 0
DWIDTH 82 0
BBX 66 72 8 -1
BITMAP
1E0000000000001E00
3F8000000000007F00
7FC000000000007F80
FFE00000000000FFC0
FFE00000000001FFC0
FFF00000000001FFC0
FFF00000000003FFC0
FFF80000000007FFC0
FFFC0000000007FFC0
FFFC000000000FFFC0
FFFE000000001FFFC0
FFFF000000001FFFC0
FFFF000000003FFFC0
FFFF800000003FFFC0
FFFFC00000007FFFC0
FFFFC0000000FFFFC0
FFFFE0000000FFFFC0
FFFFE0000001FFFFC0
FFFFF0000003FFFFC0
FFFFF8000003FFFFC0
FFFFF8000007FFFFC0
FFDFFC00000FFEFFC0
FFDFFE00000FFCFFC0
FFCFFE00001FFCFFC0
FFC7FF00003FF8FFC0
FFC7FF80003FF0FFC0
FFC3FF80007FF0FFC0
FFC1FFC000FFE0FFC0
FFC1FFC000FFC0FFC0
FFC0FFE001FFC0FFC0
FFC0FFF003FF80FFC0
FFC07FF003FF80FFC0
FFC03FF807FF00FFC0
FFC03FFC0FFE00FFC0
FFC01FFC0FFE00FFC0
FFC00FFE1FFC00FFC0
FFC00FFF3FF800FFC0
FFC007FF3FF800FFC0
FFC007FFFFF000FFC0
FFC003FFFFE000FFC0
FFC001FFFFE000FFC0
FFC001FFFFC000FFC0
FFC000FFFF8000FFC0
FFC0007FFF8000FFC0
FFC0007FFF0000FFC0
FFC0003FFF0000FFC0
FFC0001FFE0000FFC0
FFC0001FFC0000FFC0
FFC0000FFC0000FFC0
FFC0000FF80000FFC0
FFC00007F00000FFC0
FFC00001E00000FFC0
FFC00000000000FFC0
FFC00000000000FFC0
FFC00000000000FFC0
FFC00000000000FFC0
FFC00000000000FFC0
FFC00000000000FFC0
FFC00000000000FFC0
FFC00000000000FFC0
FFC00000000000FFC0
FFC00000000000FFC0
FFC00000000000FFC0
FFC00000000000FFC0
FFC00000000000FFC0
FFC00000000000FFC0
FFC00000000000FFC0
FFC00000000000FFC0
FFC00000000000FFC0
7F800000000000FF80
7F0000000000007F80
1E0000000000003E00
ENDCHAR
STARTCHAR N
ENCODING 78
SWIDTH 733 0
DWIDTH 73 0
BBX 57 72 8 -1
BITMAP
1F00000000003E00
3F80000000007F00
7FC000000000FF80
FFE000000000FF80
FFE000000000FF80
FFF000000000FF80
FFF800000000FF80
FFFC00000000FF80
FFFC00000000FF80
FFFE00000000FF80
FFFF00000000FF80
FFFF80000000FF80
FFFF80000000FF80
FFFFC0000000FF80
FFFFE0000000FF80
FFFFF0000000FF80
FFFFF0000000FF80
FFFFF8000000FF80
FFFFFC000000FF80
FFBFFE000000FF80
FF9FFE000000FF80
FF9FFF000000FF80
FF8FFF800000FF80
FF87FFC00000FF80
FF83FFC00000FF80
FF83FFE00000FF80
FF81FFF00000FF80
FF80FFF80000FF80
FF807FF80000FF80
FF807FFC0000FF80
FF803FFE0000FF80
FF801FFF0000FF80
FF800FFF0000FF80
FF800FFF8000FF80
FF8007FFC000FF80
FF8003FFE000FF80
FF8001FFE000FF80
FF8001FFF000FF80
FF8000FFF800FF80
FF80007FFC00FF80
FF80003FFC00FF80
FF80003FFE00FF80
FF80001FFF00FF80
FF80000FFF80FF80
FF800007FF80FF80
FF800007FFC0FF80
FF800003FFE0FF80
FF800001FFF0FF80
FF800000FFF0FF80
FF800000FFF8FF80
FF8000007FFCFF80
FF8000003FFCFF80
FF8000001FFEFF80
FF8000001FFFFF80
FF8000000FFFFF80
FF80000007FFFF80
FF80000003FFFF80
FF80000003FFFF80
FF80000001FFFF80
FF80000000FFFF80
FF800000007FFF80
FF800000007FFF80
FF800000003FFF80
FF800000001FFF80
FF800000000FFF80
FF800000000FFF80
FF8000000007FF80
FF8000000003FF80
FF8000000001FF80
7F8000000001FF00
7F0000000000FF00
3E00000000003C00
ENDCHAR
STARTCHAR O
ENCODING 79
SWIDTH 761 0
DWIDTH 76 0
BBX 68 72 4 -1
BITMAP
0000000FFF00000000
000000FFFFF0000000
000007FFFFFE000000
00001FFFFFFF800000
00007FFFFFFFE00000
0001FFFFFFFFF80000
0003FFFFFFFFFC0000
0007FFFFFFFFFE0000
000FFFFFFFFFFF0000
001FFFFFFFFFFF8000
003FFFF801FFFFC000
007FFFC0003FFFE000
00FFFF00000FFFF000
01FFFC000003FFF800
03FFF8000000FFFC00
03FFE00000007FFC00
07FFC00000003FFE00
07FF800000001FFE00
0FFF800000001FFF00
0FFF000000000FFF00
1FFE0000000007FF80
1FFE0000000007FF80
3FFC0000000003FFC0
3FFC0000000003FFC0
3FF80000000001FFC0
3FF80000000001FFE0
7FF00000000000FFE0
7FF00000000000FFE0
7FF00000000000FFE0
7FF00000000000FFE0
7FF000000000007FF0
FFE000000000007FF0
FFE000000000007FF0
FFE000000000007FF0
FFE000000000007FF0
FFE000000000007FF0
FFE000000000007FF0
FFE000000000007FF0
FFE000000000007FF0
FFE000000000007FF0
FFE000000000007FF0
7FF000000000007FF0
7FF00000000000FFE0
7FF00000000000FFE0
7FF00000000000FFE0
7FF00000000000FFE0
3FF80000000001FFE0
3FF80000000001FFC0
3FFC0000000001FFC0
3FFC0000000003FFC0
1FFE0000000007FF80
1FFE0000000007FF80
0FFF000000000FFF00
0FFF800000001FFF00
07FF800000001FFE00
07FFC00000003FFE00
03FFE00000007FFC00
03FFF8000001FFFC00
01FFFC000003FFF800
00FFFF00000FFFF000
007FFFC0003FFFE000
003FFFF801FFFFC000
001FFFFFFFFFFF8000
000FFFFFFFFFFF0000
0007FFFFFFFFFE0000
0003FFFFFFFFFC0000
0001FFFFFFFFF80000
00007FFFFFFFE00000
00001FFFFFFF800000
000007FFFFFE000000
000000FFFFF0000000
0000000FFF00000000
ENDCHAR
STARTCHAR P
ENCODING 80
SWIDTH 601 0
DWIDTH 60 0
BBX 48 72 8 -1
BITMAP
1FFFFFFF0000
3FFFFFFFE000
7FFFFFFFF800
FFFFFFFFFE00
FFFFFFFFFF00
FFFFFFFFFF80
FFFFFFFFFFC0
FFFFFFFFFFE0
FFFFFFFFFFF0
FFFFFFFFFFF8
FFC00000FFF8
FFC000007FFC
FFC000003FFC
FFC000001FFE
FFC000000FFE
FFC000000FFE
FFC0000007FE
FFC0000007FF
FFC0000007FF
FFC0000003FF
FFC0000003FF
FFC0000003FF
FFC0000003FF
FFC0000003FF
FFC0000003FF
FFC0000003FF
FFC0000007FF
FFC0000007FE
FFC0000007FE
FFC000000FFE
FFC000001FFE
FFC000001FFC
FFC000003FFC
FFC000007FF8
FFC00001FFF8
FFFFFFFFFFF0
FFFFFFFFFFF0
FFFFFFFFFFE0
FFFFFFFFFFC0
FFFFFFFFFF80
FFFFFFFFFF00
FFFFFFFFFC00
FFFFFFFFF800
FFFFFFFFE000
FFFFFFFC0000
FFC000000000
FFC000000000
FFC000000000
FFC000000000
FFC000000000
FFC000000000
FFC000000000
FFC000000000
FFC000000000
FFC000000000
FFC000000000
FFC000000000
FFC000000000
FFC000000000
FFC000000000
FFC000000000
FFC000000000
FFC000000000
FFC000000000
FFC000000000
FFC000000000
FFC000000000
FFC000000000
FFC000000000
7F8000000000
7F0000000000
1E0000000000
ENDCHAR
STARTCHAR Q
ENCODING 81
SWIDTH 762 0
DWIDTH 76 0
BBX 74 90 4 -19
BITMAP
0000000FFF0000000000
000000FFFFF000000000
000007FFFFFE00000000
00001FFFFFFF80000000
00007FFFFFFFE0000000
0001FFFFFFFFF8000000
0003FFFFFFFFFC000000
0007FFFFFFFFFE000000
000FFFFFFFFFFF000000
001FFFFFFFFFFF800000
003FFFF801FFFFC00000
007FFFC0003FFFE00000
00FFFF00000FFFF00000
01FFFC000003FFF80000
03FFF8000000FFFC0000
03FFE00000007FFC0000
07FFC00000003FFE0000
07FF800000001FFE0000
0FFF800000001FFF0000
0FFF000000000FFF0000
1FFE0000000007FF8000
1FFE0000000007FF8000
3FFC0000000003FFC000
3FFC0000000003FFC000
3FF80000000001FFC000
3FF80000000001FFE000
7FF00000000000FFE000
7FF00000000000FFE000
7FF00000000000FFE000
7FF00000000000FFE000
7FF000000000007FF000
FFE000000000007FF000
FFE000000000007FF000
FFE000000000007FF000
FFE000000000007FF000
FFE000000000007FF000
FFE000000000007FF000
FFE000000000007FF000
FFE000000000007FF000
FFE000000000007FF000
FFE000000000007FF000
7FF000000000007FF000
7FF00000000000FFE000
7FF00000000000FFE000
7FF00000000000FFE000
7FF00000000000FFE000
3FF80000000001FFE000
3FF80000000001FFC000
3FFC0000000001FFC000
3FFC0000000003FFC000
1FFE0000000007FF8000
1FFE0000000007FF8000
0FFF000000000FFF0000
0FFF800000001FFF0000
07FF800000001FFE0000
07FFC00000003FFE0000
03FFE00000007FFC0000
03FFF8000001FFFC0000
01FFFC000003FFF80000
00FFFF00000FFFF00000
007FFFC0003FFFE00000
003FFFF801FFFFC00000
001FFFFFFFFFFF800000
000FFFFFFFFFFF000000
0007FFFFFFFFFE000000
0003FFFFFFFFFC000000
0001FFFFFFFFF8000000
00007FFFFFFFE0000000
00001FFFFFFF80000000
000007FFFFFE00000000
000000FFFFF000000000
0000001FFF8000000000
0000007FFC0000000000
000003FFE00000000000
00001FFFF80000000000
00007FFFFF0000001F00
0001FFFFFFC000003F80
0003FFFFFFF000007FC0
0003FFFFFFFC0001FFC0
0003FFFFFFFF0003FFC0
0003FFFFFFFFE01FFFC0
0003FFFFFFFFFFFFFFC0
0001FFC3FFFFFFFFFF80
0000FE007FFFFFFFFF00
000078001FFFFFFFFE00
0000000007FFFFFFFC00
0000000001FFFFFFF000
00000000007FFFFFC000
00000000000FFFFF0000
000000000000FFF00000
ENDCHAR
STARTCHAR R
ENCODING 82
SWIDTH 681 0
DWIDTH 68 0
BBX 56 72 8 -1
BITMAP
1FFFFFFFFC0000
3FFFFFFFFF8000
7FFFFFFFFFE000
FFFFFFFFFFF800
FFFFFFFFFFFC00
FFFFFFFFFFFE00
FFFFFFFFFFFF00
FFFFFFFFFFFF80
FFFFFFFFFFFFC0
FFFFFFFFFFFFC0
FFE0000007FFE0
FFE0000003FFE0
FFE0000001FFF0
FFE0000000FFF0
FFE00000007FF0
FFE00000007FF8
FFE00000003FF8
FFE00000003FF8
FFE00000003FF8
FFE00000003FF8
FFE00000003FF8
FFE00000003FF8
FFE00000003FF8
FFE00000003FF8
FFE00000003FF8
FFE00000003FF8
FFE00000003FF8
FFE00000007FF0
FFE00000007FF0
FFE00000007FE0
FFE0000000FFE0
FFE0000001FFC0
FFE0000001FFC0
FFE0000007FF80
FFE000000FFF00
FFFFFFFFFFFF00
FFFFFFFFFFFE00
FFFFFFFFFFF800
FFFFFFFFFFF000
FFFFFFFFFFE000
FFFFFFFFFFF800
FFFFFFFFFFFC00
FFFFFFFFFFFE00
FFFFFFFFFFFF00
FFE000003FFF00
FFE0000007FF80
FFE0000003FF80
FFE0000001FFC0
FFE0000000FFC0
FFE0000000FFC0
FFE0000000FFE0
FFE00000007FE0
FFE00000007FE0
FFE00000007FE0
FFE00000007FE0
FFE00000007FE0
FFE00000007FE0
FFE00000007FE0
FFE00000007FE0
FFE00000007FF0
FFE00000007FF0
FFE00000003FF0
FFE00000003FF8
FFE00000003FFC
FFE00000003FFE
FFE00000001FFF
FFE00000001FFF
FFE00000000FFF
FFC000000007FF
7FC000000003FF
3F8000000001FE
0F00000000007C
ENDCHAR
STARTCHAR S
ENCODING 83
SWIDTH 585 0
DWIDTH 59 0
BBX 50 72 4 -1
BITMAP
00000FFF000000
0000FFFFF00000
0007FFFFFE0000
001FFFFFFF8000
003FFFFFFFE000
00FFFFFFFFF000
01FFFFFFFFFC00
03FFFFFFFFFE00
07FFFFFFFFFF00
0FFFFFFFFFFF00
0FFFE000FFFF80
1FFF80001FFF80
1FFE000007FF80
3FFC000001FF00
3FF8000000FF00
3FF00000007E00
3FF00000001800
3FF00000000000
3FF00000000000
7FF00000000000
7FF00000000000
3FF00000000000
3FF00000000000
3FF00000000000
3FF80000000000
3FFC0000000000
1FFE0000000000
1FFF8000000000
1FFFE000000000
0FFFFC00000000
07FFFF80000000
07FFFFF8000000
03FFFFFF800000
01FFFFFFF00000
007FFFFFFE0000
003FFFFFFF8000
000FFFFFFFE000
0003FFFFFFF000
00007FFFFFF800
000007FFFFFC00
0000007FFFFE00
00000007FFFF00
00000000FFFF00
000000003FFF80
000000000FFF80
0000000007FF80
0000000003FFC0
0000000001FFC0
0000000001FFC0
0000000000FFC0
0000000000FFC0
0000000000FFC0
0000000000FFC0
0000000000FFC0
1C00000000FFC0
7F00000000FFC0
7F80000001FFC0
FFC0000003FF80
FFF0000007FF80
FFFC00000FFF80
FFFF00003FFF00
FFFFC000FFFF00
7FFFFFFFFFFE00
3FFFFFFFFFFC00
1FFFFFFFFFF800
07FFFFFFFFF000
03FFFFFFFFE000
00FFFFFFFFC000
007FFFFFFF0000
000FFFFFFC0000
0003FFFFE00000
00001FFE000000
ENDCHAR
STARTCHAR T
ENCODING 84
SWIDTH 619 0
DWIDTH 62 0
BBX 56 72 3 -1
BITMAP
1FFFFFFFFFFFF8
7FFFFFFFFFFFFC
7FFFFFFFFFFFFE
FFFFFFFFFFFFFF
FFFFFFFFFFFFFF
FFFFFFFFFFFFFF
FFFFFFFFFFFFFE
7FFFFFFFFFFFFE
3FFFFFFFFFFFFC
07FFFFFFFFFFE0
000001FF800000
000001FF800000
000001FF800000
000001FF800000
000001FF800000
000001FF800000
000001FF800000
000001FF800000
000001FF800000
000001FF800000
000001FF800000
000001FF800000
000001FF800000
000001FF800000
000001FF800000
000001FF800000
000001FF800000
000001FF800000
000001FF800000
000001FF800000
000001FF800000
000001FF800000
000001FF800000
000001FF800000
000001FF800000
000001FF800000
000001FF800000
000001FF800000
000001FF800000
000001FF800000
000001FF800000
000001FF800000
000001FF800000
000001FF800000
000001FF800000
000001FF800000
000001FF800000
000001FF800000
000001FF800000
000001FF800000
000001FF800000
000001FF800000
000001FF800000
000001FF800000
000001FF800000
000001FF800000
000001FF800000
000001FF800000
000001FF800000
000001FF800000
000001FF800000
000001FF800000
000001FF800000
000001FF800000
000001FF800000
000001FF800000
000001FF800000
000001FF800000
000001FF800000
000001FF800000
000000FF000000
0000007C000000
ENDCHAR
STARTCHAR U
ENCODING 85
SWIDTH 708 0
DWIDTH 71 0
BBX 55 72 8 -1
BITMAP
1F0000000000F0
3F8000000003F8
7FC000000003FC
FFC000000007FC
FFC000000007FE
FFE000000007FE
FFE000000007FE
FFE000000007FE
FFE000000007FE
FFE000000007FE
FFE000000007FE
FFE000000007FE
FFE000000007FE
FFE000000007FE
FFE000000007FE
FFE000000007FE
FFE000000007FE
FFE000000007FE
FFE000000007FE
FFE000000007FE
FFE000000007FE
FFE000000007FE
FFE000000007FE
FFE000000007FE
FFE000000007FE
FFE000000007FE
FFE000000007FE
FFE000000007FE
FFE000000007FE
FFE000000007FE
FFE000000007FE
FFE000000007FE
FFE000000007FE
FFE000000007FE
FFE000000007FE
FFE000000007FE
FFE000000007FE
FFE000000007FE
FFE000000007FE
FFE000000007FE
FFE000000007FE
FFE000000007FE
FFE000000007FE
FFE000000007FE
FFE000000007FE
FFE000000007FE
FFE000000007FC
FFE000000007FC
FFE000000007FC
7FE00000000FFC
7FF00000000FFC
7FF00000000FFC
7FF00000001FF8
7FF80000001FF8
3FFC0000003FF8
3FFC0000007FF0
1FFE000000FFF0
1FFF000001FFF0
0FFF800003FFE0
0FFFE00007FFE0
07FFF8001FFFC0
03FFFE00FFFF80
03FFFFFFFFFF00
01FFFFFFFFFF00
00FFFFFFFFFE00
007FFFFFFFFC00
003FFFFFFFF000
000FFFFFFFE000
0007FFFFFF8000
0001FFFFFE0000
00003FFFF80000
000003FF800000
ENDCHAR
STARTCHAR V
ENCODING 86
SWIDTH 674 0
DWIDTH 67 0
BBX 61 72 3 -1
BITMAP
1E000000000003C0
3F800000000007F0
7F80000000000FF8
FFC0000000001FF8
FFC0000000001FF8
FFE0000000001FF8
FFE0000000003FF8
7FF0000000003FF8
7FF0000000007FF0
7FF0000000007FF0
3FF8000000007FE0
3FF800000000FFE0
1FFC00000000FFE0
1FFC00000000FFC0
0FFC00000001FFC0
0FFE00000001FF80
0FFE00000003FF80
07FF00000003FF00
07FF00000003FF00
03FF80000007FF00
03FF80000007FE00
03FF8000000FFE00
01FFC000000FFC00
01FFC000000FFC00
00FFE000001FFC00
00FFE000001FF800
00FFE000001FF800
007FF000003FF000
007FF000003FF000
003FF800007FF000
003FF800007FE000
001FF800007FE000
001FFC0000FFC000
001FFC0000FFC000
000FFE0001FF8000
000FFE0001FF8000
0007FF0001FF8000
0007FF0003FF0000
0007FF0003FF0000
0003FF8007FE0000
0003FF8007FE0000
0001FFC007FE0000
0001FFC00FFC0000
0001FFC00FFC0000
0000FFE00FF80000
0000FFE01FF80000
00007FF01FF80000
00007FF03FF00000
00003FF03FF00000
00003FF83FE00000
00003FF87FE00000
00001FFC7FC00000
00001FFCFFC00000
00000FFEFFC00000
00000FFEFF800000
00000FFFFF800000
000007FFFF000000
000007FFFF000000
000003FFFF000000
000003FFFE000000
000003FFFE000000
000001FFFC000000
000001FFFC000000
000000FFFC000000
000000FFF8000000
0000007FF8000000
0000007FF0000000
0000007FF0000000
0000003FE0000000
0000003FE0000000
0000001FC0000000
0000000780000000
ENDCHAR
STARTCHAR W
ENCODING 87
SWIDTH 951 0
DWIDTH 95 0
BBX 91 72 2 -1
BITMAP
1F0000000000000000001F00
3F8000000000000000003F80
7FC000000000000000007FC0
FFC000000000000000007FE0
FFE00000000000000000FFE0
FFE00000000000000000FFE0
FFE00000000000000000FFE0
FFF00000000000000001FFE0
7FF00000000000000001FFC0
7FF00000000000000001FFC0
7FF80000000000000003FFC0
3FF80000000000000003FF80
3FF80000000000000003FF80
3FFC0000000000000007FF80
1FFC0000000000000007FF00
1FFC0000001F00000007FF00
1FFE0000003FC000000FFF00
0FFE0000007FC000000FFE00
0FFE0000007FE000000FFE00
0FFF0000007FE000001FFE00
07FF000000FFF000001FFC00
07FF000000FFF000001FFC00
07FF800001FFF000003FFC00
03FF800001FFF800003FF800
03FF800001FFF800003FF800
03FFC00003FFF800007FF800
01FFC00003FFFC00007FF000
01FFC00007FFFC00007FF000
01FFE00007FFFE0000FFF000
00FFE00007FFFE0000FFE000
00FFE0000FFFFE0000FFE000
00FFF0000FFFFF0000FFE000
007FF0001FFBFF0001FFC000
007FF0001FFBFF8001FFC000
007FF8001FF9FF8001FFC000
003FF8003FF1FF8003FF8000
003FF8003FF1FFC003FF8000
003FFC007FE0FFC003FF8000
001FFC007FE0FFE007FF0000
001FFC007FC07FE007FF0000
001FFE00FFC07FE007FF0000
000FFE00FFC07FF00FFE0000
000FFE01FF803FF00FFE0000
000FFF01FF803FF00FFE0000
0007FF01FF001FF81FFC0000
0007FF03FF001FF81FFC0000
0007FF83FF000FFC1FFC0000
0003FF87FE000FFC3FF80000
0003FF87FE000FFC3FF80000
0003FFC7FC0007FE3FF80000
0001FFCFFC0007FE7FF00000
0001FFCFF80003FF7FF00000
0001FFDFF80003FF7FF00000
0000FFFFF80003FFFFE00000
0000FFFFF00001FFFFE00000
0000FFFFF00001FFFFE00000
00007FFFE00000FFFFC00000
00007FFFE00000FFFFC00000
00007FFFE000007FFFC00000
00003FFFC000007FFF800000
00003FFFC000007FFF800000
00003FFF8000003FFF800000
00001FFF8000003FFF000000
00001FFF0000001FFF000000
00001FFF0000001FFF000000
00000FFF0000001FFE000000
00000FFE0000000FFE000000
00000FFE0000000FFE000000
000007FC00000007FC000000
000007FC00000007FC000000
000003F800000003F8000000
000001F000000000F0000000
ENDCHAR
STARTCHAR X
ENCODING 88
SWIDTH 639 0
DWIDTH 64 0
BBX 56 71 4 -1
BITMAP
1F000000000078
3F8000000000FC
7FC000000001FE
FFE000000003FF
FFE000000007FF
FFF000000007FF
7FF80000000FFE
7FFC0000001FFE
3FFC0000003FFC
3FFE0000003FF8
1FFF0000007FF8
0FFF800000FFF0
07FF800001FFE0
07FFC00001FFC0
03FFE00003FFC0
01FFF00007FF80
00FFF0000FFF00
00FFF8000FFE00
007FFC001FFE00
003FFE003FFC00
001FFE007FF800
001FFF007FF000
000FFF80FFF000
0007FFC1FFE000
0003FFC3FFC000
0003FFE3FF8000
0001FFF7FF8000
0000FFFFFF0000
00007FFFFE0000
00007FFFFC0000
00003FFFFC0000
00001FFFF80000
00000FFFF00000
00000FFFE00000
000007FFE00000
000003FFC00000
000007FFE00000
00000FFFF00000
00001FFFF80000
00001FFFF80000
00003FFFFC0000
00007FFFFE0000
0000FFFFFF0000
0000FFEFFF0000
0001FFC7FF8000
0003FFC7FFC000
0007FF83FFE000
0007FF01FFE000
000FFE00FFF000
001FFE00FFF800
003FFC007FFC00
003FF8003FFC00
007FF0001FFE00
00FFF0001FFF00
00FFE0000FFF80
01FFC00007FF80
03FFC00003FFC0
07FF800003FFE0
07FF000001FFF0
0FFE000000FFF0
1FFE0000007FF8
3FFC0000007FFC
3FF80000003FFE
7FF00000001FFE
FFF00000000FFF
FFE00000000FFF
FFC000000007FF
FF8000000003FE
7F8000000001FE
3F0000000000FC
0C000000000020
ENDCHAR
STARTCHAR Y
ENCODING 89
SWIDTH 584 0
DWIDTH 58 0
BBX 55 72 2 -1
BITMAP
1E0000000000F0
7F0000000003F8
7F8000000003FC
FFC000000007FE
FFE00000000FFE
FFE00000000FFE
FFF00000001FFE
FFF80000003FFC
7FFC0000003FFC
7FFC0000007FF8
3FFE000000FFF0
1FFF000001FFF0
0FFF000001FFE0
0FFF800003FFC0
07FFC00007FFC0
03FFE00007FF80
01FFE0000FFF00
01FFF0001FFF00
00FFF8001FFE00
007FF8003FFC00
003FFC007FF800
003FFE007FF800
001FFF00FFF000
000FFF01FFE000
000FFF81FFE000
0007FFC3FFC000
0003FFC7FF8000
0001FFE7FF8000
0001FFFFFF0000
0000FFFFFE0000
00007FFFFE0000
00003FFFFC0000
00003FFFF80000
00001FFFF00000
00000FFFF00000
00000FFFE00000
000007FFC00000
000003FFC00000
000001FF800000
000001FF800000
000001FF800000
000001FF800000
000001FF800000
000001FF800000
000001FF800000
000001FF800000
000001FF800000
000001FF800000
000001FF800000
000001FF800000
000001FF800000
000001FF800000
000001FF800000
000001FF800000
000001FF800000
000001FF800000
000001FF800000
000001FF800000
000001FF800000
000001FF800000
000001FF800000
000001FF800000
000001FF800000
000001FF800000
000001FF800000
000001FF800000
000001FF800000
000001FF000000
000001FF000000
000001FF000000
000000FE000000
0000007C000000
ENDCHAR
STARTCHAR Z
ENCODING 90
SWIDTH 647 0
DWIDTH 65 0
BBX 57 72 4 -1
BITMAP
01FFFFFFFFFFFC00
07FFFFFFFFFFFE00
0FFFFFFFFFFFFF00
0FFFFFFFFFFFFF80
0FFFFFFFFFFFFF80
0FFFFFFFFFFFFF80
0FFFFFFFFFFFFF80
07FFFFFFFFFFFF00
03FFFFFFFFFFFE00
00FFFFFFFFFFFE00
00000000007FFC00
0000000000FFF800
0000000001FFF000
0000000001FFF000
0000000003FFE000
0000000007FFC000
000000000FFF8000
000000000FFF8000
000000001FFF0000
000000003FFE0000
000000007FFE0000
000000007FFC0000
00000000FFF80000
00000001FFF00000
00000001FFF00000
00000003FFE00000
00000007FFC00000
0000000FFF800000
0000000FFF800000
0000001FFF000000
0000003FFE000000
0000007FFC000000
0000007FFC000000
000000FFF8000000
000001FFF0000000
000003FFE0000000
000003FFE0000000
000007FFC0000000
00000FFF80000000
00001FFF00000000
00001FFF00000000
00003FFE00000000
00007FFC00000000
0000FFF800000000
0000FFF800000000
0001FFF000000000
0003FFE000000000
0007FFC000000000
0007FFC000000000
000FFF8000000000
001FFF0000000000
003FFF0000000000
003FFE0000000000
007FFC0000000000
00FFF80000000000
00FFF80000000000
01FFF00000000000
03FFE00000000000
07FFC00000000000
07FFC00000000000
0FFF800000000000
1FFF000000000000
3FFFFFFFFFFFE000
3FFFFFFFFFFFFC00
7FFFFFFFFFFFFE00
FFFFFFFFFFFFFE00
FFFFFFFFFFFFFF00
FFFFFFFFFFFFFF00
FFFFFFFFFFFFFF00
7FFFFFFFFFFFFE00
3FFFFFFFFFFFFC00
1FFFFFFFFFFFF800
ENDCHAR
STARTCHAR a
ENCODING 97
SWIDTH 616 0
DWIDTH 62 0
BBX 51 55 5 -1
BITMAP
00001FF8000200
0000FFFF801F80
0003FFFFE03FC0
000FFFFFF03FE0
001FFFFFFC7FE0
007FFFFFFE7FE0
00FFFFFFFF7FE0
01FFFFFFFFFFE0
01FFFFFFFFFFE0
03FFFE07FFFFE0
07FFF000FFFFE0
0FFFC0003FFFE0
0FFF00001FFFE0
1FFE00000FFFE0
1FFC000007FFE0
3FFC000003FFE0
3FF8000001FFE0
3FF0000001FFE0
7FF0000000FFE0
7FE0000000FFE0
7FE00000007FE0
7FE00000007FE0
7FE00000007FE0
7FC00000007FE0
FFC00000007FE0
FFC00000003FE0
FFC00000003FE0
FFC00000003FE0
FFC00000003FE0
FFC00000003FE0
FFC00000007FE0
7FC00000007FE0
7FE00000007FE0
7FE00000007FE0
7FE00000007FE0
7FE0000000FFE0
7FF0000000FFE0
3FF0000001FFE0
3FF8000001FFE0
1FFC000003FFE0
1FFC000007FFE0
1FFE00000FFFE0
0FFF00001FFFE0
07FFC0003FFFE0
07FFF000FFFFE0
03FFFE07FFFFE0
01FFFFFFFFFFE0
00FFFFFFFFFFE0
007FFFFFFF7FE0
003FFFFFFE7FE0
001FFFFFFC7FE0
000FFFFFF07FE0
0003FFFFC03FE0
0000FFFF001FC0
00000FF8000F00
ENDCHAR
STARTCHAR b
ENCODING 98
SWIDTH 616 0
DWIDTH 62 0
BBX 51 76 5 -1
BITMAP
1F000000000000
3F800000000000
7FC00000000000
7FC00000000000
FFC00000000000
FFC00000000000
FFC00000000000
FFC00000000000
FFC00000000000
FFC00000000000
FFC00000000000
FFC00000000000
FFC00000000000
FFC00000000000
FFC00000000000
FFC00000000000
FFC00000000000
FFC00000000000
FFC00000000000
FFC00000000000
FFC00000000000
FFC001FF000000
FFC01FFFE00000
FFC07FFFFC0000
FFC0FFFFFE0000
FFC3FFFFFF8000
FFC7FFFFFFC000
FFCFFFFFFFE000
FFDFFFFFFFF000
FFFFFFFFFFF800
FFFFFE07FFFC00
FFFFE000FFFC00
FFFFC0003FFE00
FFFF00001FFF00
FFFE00000FFF00
FFFC000007FF80
FFF8000003FF80
FFF8000001FF80
FFF0000001FFC0
FFF0000000FFC0
FFE0000000FFC0
FFE0000000FFE0
FFE00000007FE0
FFC00000007FE0
FFC00000007FE0
FFC00000007FE0
FFC00000007FE0
FFC00000003FE0
FFC00000003FE0
FFC00000003FE0
FFC00000007FE0
FFC00000007FE0
FFC00000007FE0
FFC00000007FE0
FFE00000007FE0
FFE0000000FFC0
FFE0000000FFC0
FFF0000000FFC0
FFF0000001FFC0
FFF8000001FF80
FFF8000003FF80
FFFC000007FF80
FFFE00000FFF00
FFFF00001FFF00
FFFFC0003FFE00
FFFFE000FFFC00
FFFFFE07FFFC00
FFFFFFFFFFF800
FFDFFFFFFFF000
FFCFFFFFFFE000
FFC7FFFFFFC000
FFC3FFFFFF8000
7FC1FFFFFE0000
7FC07FFFFC0000
3F801FFFF00000
0C0001FF000000
ENDCHAR
STARTCHAR c
ENCODING 99
SWIDTH 515 0
DWIDTH 52 0
BBX 45 55 3 -1
BITMAP
000007FF8000
00007FFFF800
0001FFFFFF00
0007FFFFFF80
001FFFFFFFE0
003FFFFFFFF0
007FFFFFFFF0
00FFFFFFFFF8
01FFFFFFFFF8
03FFFF03FFF8
07FFF8003FF8
07FFE0000FF0
0FFF800007F0
1FFF000001C0
1FFE00000000
3FFC00000000
3FF800000000
3FF800000000
7FF000000000
7FF000000000
7FE000000000
7FE000000000
7FE000000000
FFE000000000
FFC000000000
FFC000000000
FFC000000000
FFC000000000
FFC000000000
FFC000000000
FFC000000000
FFE000000000
7FE000000000
7FE000000000
7FE000000000
7FF000000000
7FF000000000
3FF800000000
3FF800000000
3FFC00000000
1FFE00000000
1FFF00000080
0FFF800003F0
0FFFC0000FF8
07FFF0001FF8
03FFFF03FFF8
01FFFFFFFFF8
01FFFFFFFFF8
007FFFFFFFF0
003FFFFFFFF0
001FFFFFFFC0
000FFFFFFF80
0003FFFFFE00
00007FFFF000
00000FFF0000
ENDCHAR
STARTCHAR d
ENCODING 100
SWIDTH 616 0
DWIDTH 62 0
BBX 51 76 5 -1
BITMAP
00000000000F00
00000000001FC0
00000000003FE0
00000000007FE0
00000000007FE0
00000000007FE0
00000000007FE0
00000000007FE0
00000000007FE0
00000000007FE0
00000000007FE0
00000000007FE0
00000000007FE0
00000000007FE0
00000000007FE0
00000000007FE0
00000000007FE0
00000000007FE0
00000000007FE0
00000000007FE0
00000000007FE0
00001FF8007FE0
0000FFFF007FE0
0003FFFFE07FE0
000FFFFFF07FE0
001FFFFFFC7FE0
003FFFFFFE7FE0
00FFFFFFFF7FE0
00FFFFFFFFFFE0
01FFFFFFFFFFE0
03FFFE07FFFFE0
07FFF000FFFFE0
07FFC0003FFFE0
0FFF00001FFFE0
1FFE00000FFFE0
1FFC000007FFE0
3FFC000003FFE0
3FF8000001FFE0
3FF0000001FFE0
7FF0000000FFE0
7FE0000000FFE0
7FE00000007FE0
7FE00000007FE0
7FE00000007FE0
7FC00000007FE0
FFC00000007FE0
FFC00000003FE0
FFC00000003FE0
FFC00000003FE0
FFC00000003FE0
FFC00000003FE0
FFC00000007FE0
7FC00000007FE0
7FE00000007FE0
7FE00000007FE0
7FE00000007FE0
7FE0000000FFE0
7FF0000000FFE0
3FF0000001FFE0
3FF8000001FFE0
3FFC000003FFE0
1FFC000007FFE0
1FFE00000FFFE0
0FFF00001FFFE0
07FFC0003FFFE0
07FFF000FFFFE0
03FFFE07FFFFE0
01FFFFFFFFFFE0
00FFFFFFFFFFE0
007FFFFFFF7FE0
003FFFFFFE7FE0
001FFFFFF87FE0
000FFFFFF07FE0
0003FFFFC03FE0
0000FFFF001FC0
00000FF8000F00
ENDCHAR
STARTCHAR e
ENCODING 101
SWIDTH 572 0
DWIDTH 57 0
BBX 49 55 4 -1
BITMAP
00000FFC000000
0000FFFF800000
0003FFFFE00000
000FFFFFF80000
001FFFFFFC0000
003FFFFFFF0000
00FFFFFFFF8000
01FFFFFFFFC000
03FFFFFFFFE000
03FFFE1FFFF000
07FFC001FFF000
0FFF00007FF800
0FFE00003FFC00
1FFC00001FFC00
1FF800000FFE00
3FF0000007FE00
3FF0000007FF00
7FE0000003FF00
7FE0000003FF00
7FE0000003FF80
7FC0000001FF80
FFC0000001FF80
FFFFFFFFFFFF80
FFFFFFFFFFFF80
FFFFFFFFFFFF80
FFFFFFFFFFFF80
FFFFFFFFFFFF80
FFFFFFFFFFFF80
FFFFFFFFFFFF00
FFFFFFFFFFFE00
FFFFFFFFFFF000
FFC00000000000
FFC00000000000
FFC00000000000
FFC00000000000
7FE00000000000
7FE00000000000
7FF00000000000
7FF00000000000
3FF80000000000
3FFC0000007000
1FFE000001F800
1FFF000003FC00
0FFFC0000FFC00
07FFF0003FFE00
07FFFE01FFFC00
03FFFFFFFFFC00
01FFFFFFFFF800
00FFFFFFFFF000
003FFFFFFFE000
001FFFFFFFC000
0007FFFFFF0000
0003FFFFFC0000
00007FFFF00000
000007FF000000
ENDCHAR
STARTCHAR f
ENCODING 102
SWIDTH 396 0
DWIDTH 40 0
BBX 37 75 1 -1
BITMAP
000001FF80
00000FFFE0
00003FFFF0
0000FFFFF8
0001FFFFF8
0003FFFFF8
0003FFFFF8
0007FFFFF8
000FFFFFF0
000FFF01E0
000FFE0000
001FFC0000
001FFC0000
001FF80000
001FF80000
001FF80000
001FF80000
001FF80000
001FF80000
001FF80000
001FF80000
001FF80000
001FF80000
3FFFFFFF80
7FFFFFFFC0
7FFFFFFFE0
FFFFFFFFE0
FFFFFFFFE0
FFFFFFFFE0
7FFFFFFFE0
7FFFFFFFC0
1FFFFFFF80
001FF80000
001FF80000
001FF80000
001FF80000
001FF80000
001FF80000
001FF80000
001FF80000
001FF80000
001FF80000
001FF80000
001FF80000
001FF80000
001FF80000
001FF80000
001FF80000
001FF80000
001FF80000
001FF80000
001FF80000
001FF80000
001FF80000
001FF80000
001FF80000
001FF80000
001FF80000
001FF80000
001FF80000
001FF80000
001FF80000
001FF80000
001FF80000
001FF80000
001FF80000
001FF80000
001FF80000
001FF80000
001FF80000
001FF80000
001FF80000
000FF00000
000FF00000
0003C00000
ENDCHAR
STARTCHAR g
ENCODING 103
SWIDTH 629 0
DWIDTH 63 0
BBX 53 75 5 -21
BITMAP
00000FFC000100
00007FFF800FE0
0003FFFFE01FF0
0007FFFFF81FF0
001FFFFFFE1FF0
003FFFFFFF3FF8
007FFFFFFFBFF8
00FFFFFFFFFFF8
01FFFFFFFFFFF8
03FFFE03FFFFF8
07FFF0007FFFF8
07FFC0001FFFF8
0FFF80000FFFF8
0FFF000003FFF8
1FFE000003FFF8
1FFC000001FFF8
3FF8000000FFF8
3FF00000007FF8
3FF00000007FF8
7FF00000003FF8
7FE00000003FF8
7FE00000003FF8
7FE00000003FF8
7FC00000001FF8
FFC00000001FF8
FFC00000001FF8
FFC00000001FF8
FFC00000001FF8
FFC00000001FF8
FFC00000001FF8
FFC00000001FF8
7FC00000001FF8
7FE00000003FF8
7FE00000003FF8
7FE00000003FF8
7FF00000003FF8
3FF00000007FF8
3FF00000007FF8
3FF8000000FFF8
1FFC000001FFF8
1FFE000003FFF8
0FFF000003FFF8
0FFF80000FFFF8
07FFC0001FFFF8
07FFF0007FFFF8
03FFFE03FFFFF8
01FFFFFFFFFFF8
00FFFFFFFFBFF8
007FFFFFFF3FF8
003FFFFFFE3FF8
001FFFFFFC3FF0
0007FFFFF83FF0
0003FFFFE03FF0
00007FFF803FF0
00000FFC003FF0
00000000003FF0
00000000003FF0
00000000007FF0
00000000007FE0
0000000000FFE0
0000000001FFE0
0000000001FFC0
007C000003FFC0
00FF80000FFF80
01FFF0003FFF80
01FFFE03FFFF00
01FFFFFFFFFE00
01FFFFFFFFFE00
01FFFFFFFFFC00
00FFFFFFFFF000
007FFFFFFFE000
001FFFFFFF8000
0007FFFFFE0000
00007FFFF80000
000007FF000000
ENDCHAR
STARTCHAR h
ENCODING 104
SWIDTH 580 0
DWIDTH 58 0
BBX 44 76 7 -1
BITMAP
1E0000000000
7F8000000000
7F8000000000
FFC000000000
FFC000000000
FFC000000000
FFC000000000
FFC000000000
FFC000000000
FFC000000000
FFC000000000
FFC000000000
FFC000000000
FFC000000000
FFC000000000
FFC000000000
FFC000000000
FFC000000000
FFC000000000
FFC000000000
FFC000000000
FFC003FF0000
FFC01FFFE000
FFC07FFFF000
FFC0FFFFFC00
FFC3FFFFFE00
FFC7FFFFFF00
FFCFFFFFFF00
FFDFFFFFFF80
FFFFFFFFFFC0
FFFFF83FFFC0
FFFF8007FFC0
FFFE0003FFE0
FFFC0001FFE0
FFF80000FFE0
FFF000007FE0
FFF000007FF0
FFE000007FF0
FFE000003FF0
FFC000003FF0
FFC000003FF0
FFC000003FF0
FFC000003FF0
FFC000003FF0
FFC000003FF0
FFC000003FF0
FFC000003FF0
FFC000003FF0
FFC000003FF0
FFC000003FF0
FFC000003FF0
FFC000003FF0
FFC000003FF0
FFC000003FF0
FFC000003FF0
FFC000003FF0
FFC000003FF0
FFC000003FF0
FFC000003FF0
FFC000003FF0
FFC000003FF0
FFC000003FF0
FFC000003FF0
FFC000003FF0
FFC000003FF0
FFC000003FF0
FFC000003FF0
FFC000003FF0
FFC000003FF0
FFC000003FF0
FFC000003FF0
FFC000003FF0
FFC000003FF0
7F8000001FE0
7F8000001FE0
1E0000000780
ENDCHAR
STARTCHAR i
ENCODING 105
SWIDTH 229 0
DWIDTH 23 0
BBX 11 72 6 -1
BITMAP
3F80
7FC0
FFE0
FFE0
FFE0
FFE0
FFE0
FFE0
FFE0
7FC0
3F00
0000
0000
0000
0000
0000
0000
1F00
3F80
7FC0
FFC0
FFC0
FFC0
FFC0
FFC0
FFC0
FFC0
FFC0
FFC0
FFC0
FFC0
FFC0
FFC0
FFC0
FFC0
FFC0
FFC0
FFC0
FFC0
FFC0
FFC0
FFC0
FFC0
FFC0
FFC0
FFC0
FFC0
FFC0
FFC0
FFC0
FFC0
FFC0
FFC0
FFC0
FFC0
FFC0
FFC0
FFC0
FFC0
FFC0
FFC0
FFC0
FFC0
FFC0
FFC0
FFC0
FFC0
FFC0
FFC0
7FC0
3F80
1F00
ENDCHAR
STARTCHAR j
ENCODING 106
SWIDTH 273 0
DWIDTH 27 0
BBX 21 90 3 -19
BITMAP
000FE0
001FF0
003FF8
003FF8
003FF8
003FF8
003FF8
003FF8
003FF8
001FF0
0007C0
000000
000000
000000
000000
000000
000000
000000
0007C0
000FE0
001FF0
001FF8
001FF8
001FF8
001FF8
001FF8
001FF8
001FF8
001FF8
001FF8
001FF8
001FF8
001FF8
001FF8
001FF8
001FF8
001FF8
001FF8
001FF8
001FF8
001FF8
001FF8
001FF8
001FF8
001FF8
001FF8
001FF8
001FF8
001FF8
001FF8
001FF8
001FF8
001FF8
001FF8
001FF8
001FF8
001FF8
001FF8
001FF8
001FF8
001FF8
001FF8
001FF8
001FF8
001FF8
001FF8
001FF8
001FF8
001FF8
001FF8
001FF8
001FF8
001FF8
003FF8
003FF8
003FF8
007FF8
007FF0
00FFF0
03FFF0
1FFFE0
3FFFE0
7FFFC0
FFFFC0
FFFF80
FFFF00
FFFE00
FFFC00
7FF000
3FC000
ENDCHAR
STARTCHAR k
ENCODING 107
SWIDTH 558 0
DWIDTH 56 0
BBX 44 76 6 -1
BITMAP
1E0000000000
7F8000000000
7F8000000000
FFC000000000
FFC000000000
FFC000000000
FFC000000000
FFC000000000
FFC000000000
FFC000000000
FFC000000000
FFC000000000
FFC000000000
FFC000000000
FFC000000000
FFC000000000
FFC000000000
FFC000000000
FFC000000000
FFC000000000
FFC000000000
FFC000000000
FFC000001E00
FFC000003F80
FFC000007F80
FFC00000FFC0
FFC00001FFC0
FFC00003FFC0
FFC00007FFC0
FFC0000FFF80
FFC0001FFF80
FFC0003FFE00
FFC0007FFC00
FFC001FFF800
FFC003FFF000
FFC007FFE000
FFC00FFFC000
FFC01FFF8000
FFC03FFF0000
FFC07FFE0000
FFC0FFFC0000
FFC1FFF80000
FFC3FFE00000
FFC7FFC00000
FFCFFF800000
FFDFFF000000
FFFFFF000000
FFFFFF800000
FFFFFFC00000
FFFFFFC00000
FFFFFFE00000
FFFFFFF00000
FFFFFFF80000
FFFEFFFC0000
FFFC7FFE0000
FFF83FFF0000
FFF01FFF8000
FFE00FFFC000
FFC007FFE000
FFC003FFE000
FFC003FFF000
FFC001FFF800
FFC000FFFC00
FFC0007FFE00
FFC0003FFF00
FFC0001FFF80
FFC0000FFFC0
FFC00007FFE0
FFC00003FFE0
FFC00001FFF0
FFC00000FFF0
FFC000007FF0
FFC000003FF0
7F8000001FE0
7F8000001FC0
1E0000000780
ENDCHAR
STARTCHAR l
ENCODING 108
SWIDTH 257 0
DWIDTH 26 0
BBX 10 76 8 -1
BITMAP
1E00
7F80
7F80
FFC0
FFC0
FFC0
FFC0
FFC0
FFC0
FFC0
FFC0
FFC0
FFC0
FFC0
FFC0
FFC0
FFC0
FFC0
FFC0
FFC0
FFC0
FFC0
FFC0
FFC0
FFC0
FFC0
FFC0
FFC0
FFC0
FFC0
FFC0
FFC0
FFC0
FFC0
FFC0
FFC0
FFC0
FFC0
FFC0
FFC0
FFC0
FFC0
FFC0
FFC0
FFC0
FFC0
FFC0
FFC0
FFC0
FFC0
FFC0
FFC0
FFC0
FFC0
FFC0
FFC0
FFC0
FFC0
FFC0
FFC0
FFC0
FFC0
FFC0
FFC0
FFC0
FFC0
FFC0
FFC0
FFC0
FFC0
FFC0
FFC0
FFC0
7F80
7F00
1E00
ENDCHAR
STARTCHAR m
ENCODING 109
SWIDTH 919 0
DWIDTH 92 0
BBX 78 55 7 -1
BITMAP
000003FE000000FF8000
1E001FFFC00007FFF800
7F807FFFF0001FFFFC00
7F80FFFFFC007FFFFF00
FFC3FFFFFE00FFFFFF80
FFC7FFFFFF01FFFFFFC0
FFCFFFFFFF03FFFFFFC0
FFDFFFFFFF87FFFFFFE0
FFFFFFFFFF8FFFFFFFE0
FFFFF83FFFDFFE0FFFF0
FFFFC007FFDFE001FFF0
FFFF0003FFFFC000FFF8
FFFE0001FFFF00007FF8
FFF80000FFFE00003FF8
FFF80000FFFC00003FF8
FFF000007FFC00001FF8
FFE000007FF800001FFC
FFE000007FF800001FFC
FFE000007FF000000FFC
FFC000003FF000000FFC
FFC000003FF000000FFC
FFC000003FF000000FFC
FFC000003FF000000FFC
FFC000003FF000000FFC
FFC000003FF000000FFC
FFC000003FF000000FFC
FFC000003FF000000FFC
FFC000003FF000000FFC
FFC000003FF000000FFC
FFC000003FF000000FFC
FFC000003FF000000FFC
FFC000003FF000000FFC
FFC000003FF000000FFC
FFC000003FF000000FFC
FFC000003FF000000FFC
FFC000003FF000000FFC
FFC000003FF000000FFC
FFC000003FF000000FFC
FFC000003FF000000FFC
FFC000003FF000000FFC
FFC000003FF000000FFC
FFC000003FF000000FFC
FFC000003FF000000FFC
FFC000003FF000000FFC
FFC000003FF000000FFC
FFC000003FF000000FFC
FFC000003FF000000FFC
FFC000003FF000000FFC
FFC000003FF000000FFC
FFC000003FF000000FFC
FFC000003FF000000FFC
FFC000003FF000000FFC
7F8000003FE0000007F8
7F8000001FC0000007F8
1E0000000780000001E0
ENDCHAR
STARTCHAR n
ENCODING 110
SWIDTH 590 0
DWIDTH 59 0
BBX 45 55 7 -1
BITMAP
000001FF0000
1E000FFFE000
7F007FFFF800
7F80FFFFFE00
FFC1FFFFFF00
FFC7FFFFFF80
FFCFFFFFFF80
FFDFFFFFFFC0
FFDFFFFFFFE0
FFFFF83FFFE0
FFFFC003FFE0
FFFF0001FFF0
FFFC0000FFF0
FFF800007FF0
FFF800003FF0
FFF000003FF8
FFE000003FF8
FFE000001FF8
FFC000001FF8
FFC000001FF8
FFC000001FF8
FFC000001FF8
FFC000001FF8
FFC000001FF8
FFC000001FF8
FFC000001FF8
FFC000001FF8
FFC000001FF8
FFC000001FF8
FFC000001FF8
FFC000001FF8
FFC000001FF8
FFC000001FF8
FFC000001FF8
FFC000001FF8
FFC000001FF8
FFC000001FF8
FFC000001FF8
FFC000001FF8
FFC000001FF8
FFC000001FF8
FFC000001FF8
FFC000001FF8
FFC000001FF8
FFC000001FF8
FFC000001FF8
FFC000001FF8
FFC000001FF8
FFC000001FF8
FFC000001FF8
FFC000001FF8
FFC000001FF8
7F8000000FF0
7F8000000FF0
1E00000003C0
ENDCHAR
STARTCHAR o
ENCODING 111
SWIDTH 608 0
DWIDTH 61 0
BBX 53 55 4 -1
BITMAP
000007FF000000
00007FFFE00000
0001FFFFFC0000
0007FFFFFF0000
001FFFFFFF8000
003FFFFFFFE000
007FFFFFFFF000
00FFFFFFFFF800
01FFFFFFFFFC00
03FFFE07FFFE00
07FFF0007FFF00
0FFFC0001FFF00
0FFF80000FFF80
1FFF000007FFC0
1FFE000003FFC0
3FFC000001FFE0
3FF8000000FFE0
7FF0000000FFE0
7FF00000007FF0
7FE00000007FF0
7FE00000003FF0
FFE00000003FF0
FFC00000003FF8
FFC00000001FF8
FFC00000001FF8
FFC00000001FF8
FFC00000001FF8
FFC00000001FF8
FFC00000001FF8
FFC00000001FF8
FFC00000001FF8
FFC00000001FF8
FFC00000003FF8
FFE00000003FF0
FFE00000003FF0
7FE00000003FF0
7FF00000007FF0
7FF00000007FE0
3FF8000000FFE0
3FFC000001FFE0
1FFC000003FFC0
1FFE000007FFC0
0FFF80000FFF80
0FFFC0001FFF00
07FFF0007FFF00
03FFFE07FFFE00
01FFFFFFFFFC00
00FFFFFFFFF800
007FFFFFFFF000
003FFFFFFFE000
001FFFFFFF8000
0007FFFFFF0000
0001FFFFFC0000
00007FFFF00000
000007FF000000
ENDCHAR
STARTCHAR p
ENCODING 112
SWIDTH 616 0
DWIDTH 62 0
BBX 51 75 5 -21
BITMAP
000003FC000000
1F001FFFC00000
3F807FFFF80000
7FC1FFFFFE0000
7FC3FFFFFF0000
FFC7FFFFFFC000
FFCFFFFFFFE000
FFDFFFFFFFF000
FFFFFFFFFFF800
FFFFFE07FFF800
FFFFE000FFFC00
FFFFC0003FFE00
FFFF00001FFE00
FFFE00000FFF00
FFFC000007FF80
FFF8000003FF80
FFF8000001FF80
FFF0000001FFC0
FFF0000000FFC0
FFE0000000FFC0
FFE0000000FFC0
FFE00000007FE0
FFC00000007FE0
FFC00000007FE0
FFC00000007FE0
FFC00000007FE0
FFC00000003FE0
FFC00000003FE0
FFC00000003FE0
FFC00000007FE0
FFC00000007FE0
FFC00000007FE0
FFC00000007FE0
FFE00000007FE0
FFE0000000FFE0
FFE0000000FFC0
FFF0000000FFC0
FFF0000001FFC0
FFF8000001FF80
FFF8000003FF80
FFFC000007FF80
FFFE00000FFF00
FFFF00001FFF00
FFFFC0003FFE00
FFFFE000FFFC00
FFFFFE07FFFC00
FFFFFFFFFFF800
FFDFFFFFFFF000
FFDFFFFFFFE000
FFC7FFFFFFC000
FFC3FFFFFF8000
FFC1FFFFFE0000
FFC07FFFFC0000
FFC01FFFF00000
FFC001FF000000
FFC00000000000
FFC00000000000
FFC00000000000
FFC00000000000
FFC00000000000
FFC00000000000
FFC00000000000
FFC00000000000
FFC00000000000
FFC00000000000
FFC00000000000
FFC00000000000
FFC00000000000
FFC00000000000
FFC00000000000
FFC00000000000
7FC00000000000
7FC00000000000
3F800000000000
1F000000000000
ENDCHAR
STARTCHAR q
ENCODING 113
SWIDTH 616 0
DWIDTH 62 0
BBX 51 75 5 -21
BITMAP
00001FF8000000
0000FFFF000F00
0003FFFFE01FC0
000FFFFFF03FE0
001FFFFFFC7FE0
003FFFFFFE7FE0
00FFFFFFFF7FE0
00FFFFFFFFFFE0
01FFFFFFFFFFE0
03FFFE07FFFFE0
07FFF000FFFFE0
07FFC0003FFFE0
0FFF80001FFFE0
1FFE00000FFFE0
1FFC000007FFE0
3FFC000003FFE0
3FF8000001FFE0
3FF0000001FFE0
7FF0000000FFE0
7FE0000000FFE0
7FE00000007FE0
7FE00000007FE0
7FE00000007FE0
7FC00000007FE0
FFC00000007FE0
FFC00000003FE0
FFC00000003FE0
FFC00000003FE0
FFC00000003FE0
FFC00000003FE0
FFC00000007FE0
7FC00000007FE0
7FE00000007FE0
7FE00000007FE0
7FE00000007FE0
7FE0000000FFE0
7FF0000000FFE0
3FF0000001FFE0
3FF8000001FFE0
3FFC000003FFE0
1FFC000007FFE0
1FFE00000FFFE0
0FFF00001FFFE0
07FFC0003FFFE0
07FFF000FFFFE0
03FFFE07FFFFE0
01FFFFFFFFFFE0
00FFFFFFFFFFE0
007FFFFFFF7FE0
003FFFFFFE7FE0
001FFFFFF87FE0
000FFFFFF07FE0
0003FFFFC07FE0
0000FFFF007FE0
00000FF8007FE0
00000000007FE0
00000000007FE0
00000000007FE0
00000000007FE0
00000000007FE0
00000000007FE0
00000000007FE0
00000000007FE0
00000000007FE0
00000000007FE0
00000000007FE0
00000000007FE0
00000000007FE0
00000000007FE0
00000000007FE0
00000000007FE0
00000000007FE0
00000000003FE0
00000000001FC0
00000000000F00
ENDCHAR
STARTCHAR r
ENCODING 114
SWIDTH 418 0
DWIDTH 42 0
BBX 33 55 4 -1
BITMAP
000001FC00
1F000FFF00
3F803FFF80
7FC0FFFF80
7FC1FFFF80
FFC3FFFF80
FFC7FFFF80
FFCFFFFF80
FFCFFFFF00
FFDFE03E00
FFFF800000
FFFF000000
FFFE000000
FFFC000000
FFF8000000
FFF8000000
FFF0000000
FFF0000000
FFE0000000
FFE0000000
FFE0000000
FFE0000000
FFE0000000
FFC0000000
FFC0000000
FFC0000000
FFC0000000
FFC0000000
FFC0000000
FFC0000000
FFC0000000
FFC0000000
FFC0000000
FFC0000000
FFC0000000
FFC0000000
FFC0000000
FFC0000000
FFC0000000
FFC0000000
FFC0000000
FFC0000000
FFC0000000
FFC0000000
FFC0000000
FFC0000000
FFC0000000
FFC0000000
FFC0000000
FFC0000000
FFC0000000
7FC0000000
7FC0000000
3F80000000
1F00000000
ENDCHAR
STARTCHAR s
ENCODING 115
SWIDTH 478 0
DWIDTH 48 0
BBX 41 55 3 -1
BITMAP
0000FFC00000
0007FFFC0000
001FFFFF8000
007FFFFFC000
00FFFFFFF000
01FFFFFFF800
03FFFFFFFC00
07FFFFFFFE00
0FFFE1FFFF00
0FFE001FFF00
1FFC0007FF00
1FF80001FF00
1FF80000FF00
1FF000007E00
1FF000001800
1FF000000000
1FF000000000
1FF800000000
1FF800000000
1FFE00000000
1FFF00000000
0FFFC0000000
0FFFF8000000
07FFFF800000
03FFFFF00000
01FFFFFE0000
00FFFFFF8000
003FFFFFE000
001FFFFFF000
0003FFFFF800
00007FFFFC00
00000FFFFE00
000000FFFF00
0000003FFF00
00000007FF80
00000003FF80
00000001FF80
00000000FF80
00000000FF80
3F000000FF80
7F800000FF80
7FC00000FF80
FFE00000FF80
FFF00001FF80
7FFC0003FF00
7FFF0007FF00
3FFFE03FFF00
1FFFFFFFFE00
0FFFFFFFFC00
07FFFFFFF800
03FFFFFFF000
00FFFFFFE000
003FFFFF8000
000FFFFE0000
00007FE00000
ENDCHAR
STARTCHAR t
ENCODING 116
SWIDTH 386 0
DWIDTH 39 0
BBX 33 65 3 -1
BITMAP
0007800000
001FE00000
001FE00000
003FF00000
003FF00000
003FF00000
003FF00000
003FF00000
003FF00000
003FF00000
003FF00000
003FF00000
003FF00000
3FFFFFFC00
7FFFFFFF00
FFFFFFFF00
FFFFFFFF80
FFFFFFFF80
FFFFFFFF80
FFFFFFFF00
7FFFFFFF00
3FFFFFFE00
003FF00000
003FF00000
003FF00000
003FF00000
003FF00000
003FF00000
003FF00000
003FF00000
003FF00000
003FF00000
003FF00000
003FF00000
003FF00000
003FF00000
003FF00000
003FF00000
003FF00000
003FF00000
003FF00000
003FF00000
003FF00000
003FF00000
003FF00000
003FF00000
003FF00000
003FF00000
003FF00000
003FF00000
003FF00000
003FF00000
003FF00000
003FF00000
003FF80000
003FFC0000
003FFFFE00
001FFFFE00
001FFFFF00
001FFFFF00
000FFFFF00
0007FFFE00
0003FFFC00
0000FFF800
00003FE000
ENDCHAR
STARTCHAR u
ENCODING 117
SWIDTH 581 0
DWIDTH 58 0
BBX 44 54 7 -1
BITMAP
1E0000000780
7F8000000FE0
7F8000001FE0
FFC000003FF0
FFC000003FF0
FFC000003FF0
FFC000003FF0
FFC000003FF0
FFC000003FF0
FFC000003FF0
FFC000003FF0
FFC000003FF0
FFC000003FF0
FFC000003FF0
FFC000003FF0
FFC000003FF0
FFC000003FF0
FFC000003FF0
FFC000003FF0
FFC000003FF0
FFC000003FF0
FFC000003FF0
FFC000003FF0
FFC000003FF0
FFC000003FF0
FFC000003FF0
FFC000003FF0
FFC000003FF0
FFC000003FF0
FFC000003FF0
FFC000003FF0
FFC000003FF0
FFC000003FF0
FFC000003FF0
FFC000003FF0
FFC000003FF0
FFC000003FF0
FFE000007FF0
7FE000007FE0
7FF000007FE0
7FF00000FFE0
7FF80001FFE0
3FFC0003FFC0
3FFF000FFFC0
1FFFE07FFF80
0FFFFFFFFF80
0FFFFFFFFF00
07FFFFFFFE00
03FFFFFFFC00
01FFFFFFF800
007FFFFFF000
003FFFFFC000
0007FFFE0000
0000FFF00000
ENDCHAR
STARTCHAR v
ENCODING 118
SWIDTH 551 0
DWIDTH 55 0
BBX 49 53 3 1
BITMAP
1E000000003C00
3F800000007F00
7FC0000000FF00
FFC0000000FF80
FFE0000001FF80
FFE0000001FF80
7FE0000003FF00
7FF0000003FF00
7FF0000007FF00
3FF8000007FE00
3FF8000007FE00
1FFC00000FFC00
1FFC00000FFC00
0FFC00001FF800
0FFE00001FF800
0FFE00003FF000
07FF00003FF000
07FF00003FF000
03FF80007FE000
03FF80007FE000
01FF8000FFC000
01FFC000FFC000
00FFC001FF8000
00FFE001FF8000
00FFE001FF0000
007FF003FF0000
007FF003FF0000
003FF807FE0000
003FF807FE0000
001FF80FFC0000
001FFC0FFC0000
000FFC0FF80000
000FFE1FF80000
000FFE1FF00000
0007FF3FF00000
0007FF3FF00000
0003FF7FE00000
0003FFFFE00000
0001FFFFC00000
0001FFFFC00000
0000FFFF800000
0000FFFF800000
0000FFFF000000
00007FFF000000
00007FFF000000
00003FFE000000
00003FFE000000
00001FFC000000
00001FFC000000
00001FF8000000
00000FF8000000
000007F0000000
000003E0000000
ENDCHAR
STARTCHAR w
ENCODING 119
SWIDTH 763 0
DWIDTH 76 0
BBX 70 53 3 1
BITMAP
1E00000000000001E0
3F80000000000007F8
7FC0000000000007F8
FFC000000000000FFC
FFC000000000000FFC
FFE000000000000FFC
FFE000000000001FFC
7FE000000000001FFC
7FF000000000001FF8
7FF00000FC00003FF8
3FF00001FE00003FF0
3FF80001FF00003FF0
1FF80003FF00007FF0
1FF80003FF00007FE0
1FFC0003FF8000FFE0
0FFC0007FF8000FFE0
0FFE0007FFC000FFC0
0FFE0007FFC001FFC0
07FE000FFFC001FFC0
07FF000FFFE001FF80
07FF001FFFE003FF80
03FF001FFFE003FF80
03FF801FFFF003FF00
03FF803FFFF007FF00
01FF803FDFF807FE00
01FFC07FCFF807FE00
00FFC07FCFF80FFE00
00FFC07F8FFC0FFC00
00FFE0FF87FC0FFC00
007FE0FF87FE1FFC00
007FE0FF03FE1FF800
007FF1FF03FE3FF800
003FF1FF03FF3FF800
003FFBFE01FF3FF000
003FFBFE01FF7FF000
001FFBFE01FFFFF000
001FFFFC00FFFFE000
000FFFFC00FFFFE000
000FFFF8007FFFC000
000FFFF8007FFFC000
0007FFF8007FFFC000
0007FFF0003FFF8000
0007FFF0003FFF8000
0003FFF0003FFF8000
0003FFE0001FFF0000
0003FFE0001FFF0000
0001FFE0000FFF0000
0001FFC0000FFE0000
0001FFC0000FFE0000
0000FFC00007FE0000
0000FF800007FC0000
00007F000003F80000
00003E000001F00000
ENDCHAR
STARTCHAR x
ENCODING 120
SWIDTH 486 0
DWIDTH 49 0
BBX 44 53 2 1
BITMAP
1E00000007C0
3F8000000FE0
7FC000001FF0
FFC000003FF0
FFE000003FF0
FFF000007FF0
FFF80000FFF0
7FFC0001FFE0
3FFC0001FFC0
3FFE0003FF80
1FFF0007FF80
0FFF800FFF00
07FFC00FFE00
03FFC01FFC00
03FFE03FF800
01FFF07FF800
00FFF87FF000
007FFCFFE000
007FFDFFC000
003FFFFF8000
001FFFFF8000
000FFFFF0000
0007FFFE0000
0007FFFC0000
0003FFFC0000
0001FFF80000
0000FFF80000
0000FFF80000
0001FFFC0000
0001FFFE0000
0003FFFF0000
0007FFFF8000
000FFFFF8000
001FFFFFC000
003FFFFFE000
003FF9FFF000
007FF8FFF800
00FFF07FF800
01FFE07FFC00
03FFC03FFE00
03FFC01FFF00
07FF800FFF80
0FFF0007FF80
1FFE0007FFC0
3FFC0003FFE0
3FFC0001FFF0
7FF80000FFF0
7FF00000FFF0
FFE000007FF0
FFC000003FF0
7FC000001FF0
3F8000000FE0
1F00000007C0
ENDCHAR
STARTCHAR y
ENCODING 121
SWIDTH 581 0
DWIDTH 58 0
BBX 44 75 7 -21
BITMAP
1E0000000780
7F8000000FE0
7F8000001FE0
FFC000003FF0
FFC000003FF0
FFC000003FF0
FFC000003FF0
FFC000003FF0
FFC000003FF0
FFC000003FF0
FFC000003FF0
FFC000003FF0
FFC000003FF0
FFC000003FF0
FFC000003FF0
FFC000003FF0
FFC000003FF0
FFC000003FF0
FFC000003FF0
FFC000003FF0
FFC000003FF0
FFC000003FF0
FFC000003FF0
FFC000003FF0
FFC000003FF0
FFC000003FF0
FFC000003FF0
FFC000003FF0
FFC000003FF0
FFC000003FF0
FFC000003FF0
FFC000003FF0
FFC000003FF0
FFC000003FF0
FFC000003FF0
FFC000003FF0
FFC000003FF0
FFC000007FF0
FFE000007FF0
FFE000007FF0
FFE00000FFF0
7FF00001FFF0
7FF80003FFF0
7FFC0007FFF0
3FFE001FFFF0
3FFFC0FFFFF0
3FFFFFFFFFF0
1FFFFFFFFFF0
0FFFFFFFBFF0
07FFFFFFBFF0
07FFFFFE3FF0
01FFFFFC3FF0
00FFFFF03FF0
003FFFC03FF0
0007FE003FF0
000000007FF0
000000007FE0
000000007FE0
00000000FFE0
00000000FFE0
00000001FFC0
00000001FFC0
07000003FFC0
0FC0000FFF80
1FF0003FFF80
3FFF03FFFF00
3FFFFFFFFE00
3FFFFFFFFC00
3FFFFFFFFC00
3FFFFFFFF000
1FFFFFFFE000
0FFFFFFFC000
03FFFFFF0000
00FFFFF80000
0007FF800000
ENDCHAR
STARTCHAR z
ENCODING 122
SWIDTH 482 0
DWIDTH 48 0
BBX 42 52 3 -1
BITMAP
0FFFFFFFFE00
1FFFFFFFFF80
3FFFFFFFFF80
3FFFFFFFFF80
3FFFFFFFFFC0
3FFFFFFFFF80
3FFFFFFFFF80
1FFFFFFFFF80
0FFFFFFFFF00
0000001FFE00
0000001FFE00
0000003FFC00
0000007FF800
000000FFF000
000000FFF000
000001FFE000
000003FFC000
000007FF8000
000007FF8000
00000FFF0000
00001FFE0000
00003FFC0000
00007FFC0000
00007FF80000
0000FFF00000
0001FFE00000
0003FFE00000
0003FFC00000
0007FF800000
000FFF000000
001FFF000000
001FFE000000
003FFC000000
007FF8000000
00FFF8000000
00FFF0000000
01FFE0000000
03FFC0000000
07FF80000000
07FF80000000
0FFF00000000
1FFE00000000
3FFC00000000
3FFFFFFFFF00
7FFFFFFFFF80
7FFFFFFFFFC0
FFFFFFFFFFC0
FFFFFFFFFFC0
FFFFFFFFFFC0
7FFFFFFFFF80
3FFFFFFFFF80
1FFFFFFFFE00
ENDCHAR
ENDFONT
